<?xml version="1.0" encoding="UTF-8"?>
<svg id="Layer_2" data-name="Layer 2" xmlns="http://www.w3.org/2000/svg" viewBox="0 0 40.04 65.75">
  <defs>
    <style>
      .cls-1 {
        fill: #3cf;
      }

      .cls-2 {
        fill: #1a1a1a;
      }
    </style>
  </defs>
  <g id="Layer_1-2" data-name="Layer 1">
    <g>
      <g>
        <path class="cls-2" d="m11.72,59.35c2.65-13.67,6.64-27.1,10.69-40.41,1.07-3.52,2.16-7.03,3.26-10.54h-11.57c3.7,12.31,7.44,24.61,10.51,37.1,1.29,5.26,2.5,10.54,3.7,15.82.69,3.06,4.4,5.16,7.38,4.19,3.21-1.04,4.93-4.1,4.19-7.38-1.99-8.83-4.05-17.65-6.43-26.39-1.95-7.14-4.08-14.23-6.21-21.32l-1.57-5.22c-.73-2.44-3.13-4.52-5.79-4.4s-4.96,1.79-5.79,4.4C9.91,18.5,5.86,31.86,2.54,45.4c-.88,3.57-1.69,7.15-2.39,10.76-.6,3.07.86,6.62,4.19,7.38,2.97.68,6.74-.9,7.38-4.19h0Z"/>
        <path class="cls-2" d="m.75,60.78c2.07,4.15,7.02,5.9,11.09,3.47,2.57-1.53,4.29-4.21,6.01-6.56.39-.53.78-1.06,1.18-1.59.09-.12.19-.25.28-.37.23-.32-1.11,1.41-.56.72.21-.26.42-.53.63-.79.84-1.01,1.73-1.94,2.71-2.8.73-.64-1.49,1.03-.43.34.25-.16.49-.33.75-.47.12-.06.24-.12.35-.19.8-.45-.74.36-.9.36.22,0,.58-.19.79-.26.12-.04.26-.03.37-.08.28-.11-1.85.13-1.09.15.28,0,.63.04.9,0,.28-.04-1.8-.37-1.07-.14.13.04.27.06.4.09s.27.09.4.12c.83.19-1.38-.69-.82-.35.35.21.71.38,1.05.6.92.58-.6-.31-.57-.47,0,.04.46.38.51.43.36.32.71.67,1.04,1.03.18.2.36.4.53.6.08.09.15.19.23.28.68.8-.37-.53-.4-.52.2-.01.98,1.38,1.1,1.58.39.6.77,1.22,1.13,1.85.92,1.6,1.74,3.26,2.52,4.93,1.32,2.86,5.66,3.79,8.21,2.15,2.94-1.9,3.57-5.15,2.15-8.21-2.38-5.14-5.3-10.32-9.97-13.7-3.69-2.67-8.18-2.82-12.23-.97-2.67,1.22-4.86,3.5-6.66,5.77-1.09,1.38-2.14,2.79-3.18,4.2-.46.62-1.83,2.33-.24.35-.32.4-.64.81-.99,1.2-.18.2-.37.4-.57.59-.25.24-1.03.85.06,0s.29-.32.08-.13c-.23.2,1.88-.61.86-.4-.16.03,2.05-.18,1.3-.2-.34,0,1.99.36,1.3.17s1.45.65,1.15.49c-.61-.33.94.75.94.75,0-.05-.17-.16-.21-.2-.58-.59.7,1.04.64.85-.07-.24-.32-.52-.43-.75-1.41-2.81-5.61-3.83-8.21-2.15C.03,54.43-.75,57.77.75,60.78h0Z"/>
      </g>
      <g>
        <path class="cls-1" d="m8.82,59.08c2.65-13.67,6.64-27.1,10.69-40.41,1.07-3.52,2.16-7.03,3.26-10.54h-5.79c3.7,12.31,7.44,24.61,10.51,37.1,1.29,5.26,2.5,10.54,3.7,15.82.36,1.58,2.18,2.51,3.69,2.1,1.63-.45,2.45-2.1,2.1-3.69-1.99-8.83-4.05-17.65-6.43-26.39-1.95-7.14-4.08-14.23-6.21-21.32l-1.57-5.22c-.86-2.88-4.9-2.82-5.79,0-4.18,13.29-8.23,26.65-11.55,40.19-.88,3.57-1.69,7.15-2.39,10.76-.31,1.59.45,3.24,2.1,3.69,1.47.4,3.38-.5,3.69-2.1h0Z"/>
        <path class="cls-1" d="m3.34,59.79c1.34,2.68,4.27,4.03,6.98,2.4,2.1-1.26,3.53-3.56,4.94-5.48.39-.53.78-1.06,1.18-1.59.09-.12.19-.24.28-.37.11-.15-.45.56-.09.12.21-.26.42-.53.63-.79.83-1.01,1.73-1.94,2.71-2.8.36-.31.09-.03-.16.12.12-.07.22-.17.34-.25.25-.16.49-.33.75-.47.12-.07.24-.12.35-.19.59-.32-.16.11-.18.06,0-.02.73-.24.79-.26.11-.03.27-.03.37-.08.12-.06-.8.03-.29.04.26,0,.65.05.9,0,.12-.02-.76-.18-.27-.03.13.04.27.06.4.09s.27.09.4.12c.57.13-.47-.27-.1-.05.34.21.71.38,1.05.6.32.2.45.35.04,0,.17.14.34.28.51.43.36.32.71.67,1.04,1.03.18.2.36.4.53.6.12.14.66.84.3.36,1.92,2.58,3.41,5.44,4.75,8.35.68,1.47,2.8,1.84,4.1,1.08,1.51-.88,1.76-2.63,1.08-4.1-3.06-6.6-9.11-17.7-18.1-13.59-2.46,1.12-4.4,3.21-6.05,5.3-.93,1.18-1.82,2.39-2.71,3.6-.17.23-.34.46-.51.69-.24.33-.76.94-.19.27-.33.4-.64.81-.99,1.2-.18.2-.37.4-.57.59-.13.13-.75.66-.24.24s-.11,0-.23.11c-.29.27.66-.25.41-.17-.09.03-.18.05-.27.07.06-.01.97-.07.5-.09-.14,0,.95.18.51.06s.55.25.43.19c-.43-.24.34.2.33.28,0-.02-.19-.17-.21-.2-.39-.4.18.29.17.24-.04-.22-.33-.54-.43-.75-.72-1.45-2.77-1.86-4.1-1.08-1.47.86-1.8,2.65-1.08,4.1h0Z"/>
      </g>
    </g>
  </g>
</svg>